<?xml version="1.0" encoding="UTF-8" standalone="no"?> <svg xmlns="http://www.w3.org/2000/svg" width="50.000000pt" height="50.000000pt" viewBox="0 0 50.000000 50.000000" preserveAspectRatio="xMidYMid meet"> <g transform="translate(0.000000,50.000000) scale(0.100000,-0.100000)" fill="#000000" stroke="none"> <path d="M100 452 c-56 -28 -70 -68 -70 -202 0 -192 28 -220 220 -220 192 0 220 28 220 220 0 134 -14 174 -70 202 -50 26 -250 26 -300 0z m317 -35 c28 -27 28 -28 28 -167 0 -139 0 -140 -28 -167 -27 -28 -28 -28 -167 -28 -139 0 -140 0 -167 28 -28 27 -28 28 -28 166 0 125 2 141 20 161 32 36 52 40 187 37 125 -2 128 -3 155 -30z"></path> <path d="M354 379 c-10 -17 13 -36 27 -22 12 12 4 33 -11 33 -5 0 -12 -5 -16 -11z"></path> <path d="M198 344 c-30 -16 -58 -61 -58 -94 0 -53 57 -110 110 -110 34 0 78 28 95 60 19 37 19 63 0 100 -28 54 -94 74 -147 44z m113 -33 c39 -40 39 -82 0 -122 -20 -20 -39 -29 -61 -29 -43 0 -90 47 -90 90 0 43 47 90 90 90 22 0 41 -9 61 -29z"></path> </g> </svg> 